# xmcd CD database file
#
# Track frame offsets:
#	150
#	23847
#	46765
#	69807
#	96570
#	115502
#	132157
#	149037
#	169870
#	188325
#	210897
#	233795
#
# Disc length: 3383 seconds
#
# Revision: 0
# Processed by: cddbd v1.5.1PL2 Copyright (c) Steve Scherf et al.
# Submitted via: CDex 1.51
#
DISCID=980d350c
DTITLE=Various Artist - BRAND-NEW ARTISTS 峠恵子 井上浩之 井上睦都実
DYEAR=1992
DGENRE=JPop
TTITLE0=峠恵子 - 優しい風
TTITLE1=峠恵子 - 両手にイマジネーション
TTITLE2=峠恵子 - You're Everything
TTITLE3=峠恵子 - Starlight in your eyes
TTITLE4=井上浩之 - 夢のかたち
TTITLE5=井上浩之 - 夏のかけら
TTITLE6=井上浩之 - カラー
TTITLE7=井上浩之 - あなたに会える場所
TTITLE8=井上睦都実 - ボーイフレンド
TTITLE9=井上睦都実 - 抱きしめたい
TTITLE10=井上睦都実 - ベッドルーム
TTITLE11=井上睦都実 - 永すぎた春
EXTD=YEAR: 1992
EXTT0=
EXTT1=
EXTT2=
EXTT3=
EXTT4=
EXTT5=
EXTT6=
EXTT7=
EXTT8=
EXTT9=
EXTT10=
EXTT11=
PLAYORDER=
